<svg xmlns="http://www.w3.org/2000/svg" xmlns:svg="http://www.w3.org/2000/svg" id="svg8" width="1280" height="640" version="1.1" viewBox="0 0 338.667 169.333"><metadata id="metadata5"/><rect style="opacity:.98000004;fill:#fff;fill-opacity:1;stroke-width:.26458332" id="rect853" width="338.667" height="169.333" x="0" y="0"/><g id="g818" transform="matrix(0.54668739,0,0,0.54668739,4.8193004,2.0789234)"><text id="text861" x="234.273" y="147.417" xml:space="preserve" style="font-style:normal;font-weight:400;font-size:127.57019043px;line-height:1.25;font-family:sans-serif;letter-spacing:0;word-spacing:0;fill:#000;fill-opacity:1;stroke:none;stroke-width:3.189255"><tspan style="font-style:normal;font-variant:normal;font-weight:700;font-stretch:normal;font-family:'Ubuntu Mono';-inkscape-font-specification:'Ubuntu Mono Bold';stroke-width:3.189255" id="tspan859" x="234.273" y="147.417">Typer</tspan></text><path style="stroke-width:7.00927496" id="path821" d="M 205.78687,60.494874 H 69.079616 c -8.35431,0 -15.189685,5.821962 -15.189685,12.937703 V 99.243294 H 69.079616 V 73.303198 H 205.78687 V 164.06121 H 69.079616 V 138.05642 H 53.889931 v 25.94009 c 0,7.11574 6.835375,12.80833 15.189685,12.80833 H 205.78687 c 8.35432,0 15.18968,-5.69259 15.18968,-12.80833 V 73.432577 c 0,-7.180431 -6.83536,-12.937703 -15.18968,-12.937703 z M 129.8384,144.52526 160.21778,118.64984 129.8384,92.774449 V 112.181 H 53.889931 v 12.93771 H 129.8384 Z"/></g><text style="font-style:normal;font-weight:400;font-size:10.58333302px;line-height:1.25;font-family:sans-serif;letter-spacing:0;word-spacing:0;fill:#000;fill-opacity:1;stroke:none;stroke-width:.26458332" id="text851-3" x="169.842" y="125.578" xml:space="preserve"><tspan style="font-style:italic;font-variant:normal;font-weight:400;font-stretch:normal;font-family:Roboto;-inkscape-font-specification:'Roboto Italic';text-align:center;text-anchor:middle;stroke-width:.26458332" id="tspan855-5" x="169.842" y="125.578">Build great CLIs. Easy to code. Based on Python type hints.</tspan></text></svg>